<?xml version="1.0" standalone="no"?>
<!DOCTYPE svg PUBLIC "-//W3C//DTD SVG 20010904//EN"
 "http://www.w3.org/TR/2001/REC-SVG-20010904/DTD/svg10.dtd">
<svg version="1.0" xmlns="http://www.w3.org/2000/svg"
 width="1024.000000pt" height="1024.000000pt" viewBox="0 0 1024.000000 1024.000000"
 preserveAspectRatio="xMidYMid meet">

<g transform="translate(0.000000,1024.000000) scale(0.100000,-0.100000)"
fill="#6a5acd" stroke="none">
<path d="M5515 8884 c-222 -32 -408 -125 -547 -272 -113 -120 -187 -250 -232
-406 -58 -199 -57 -377 3 -610 146 -562 49 -1151 -268 -1622 -223 -332 -524
-568 -886 -694 -258 -90 -432 -241 -550 -475 -131 -260 -149 -546 -50 -821 49
-139 114 -241 220 -350 144 -146 297 -234 472 -270 109 -23 311 -15 408 16
314 100 546 352 630 684 48 190 44 348 -15 577 -16 63 -36 155 -45 204 -23
125 -31 395 -16 536 47 446 243 866 547 1173 189 190 395 321 654 418 113 42
211 92 275 141 254 194 399 517 382 851 -23 437 -308 803 -699 896 -83 20
-227 32 -283 24z"/>
<path d="M6098 6250 c-297 -47 -541 -233 -678 -515 -196 -402 -114 -877 202
-1181 130 -125 206 -165 467 -244 468 -142 847 -471 1075 -931 202 -407 254
-837 162 -1334 -43 -231 2 -483 125 -701 56 -100 224 -271 319 -327 164 -95
360 -139 529 -118 313 38 570 224 711 515 185 381 123 834 -154 1133 -123 134
-235 198 -461 266 -341 103 -542 223 -780 461 -162 163 -243 276 -345 481
-147 298 -199 506 -207 840 -5 203 3 304 41 510 65 346 -64 716 -327 943 -87
75 -240 154 -351 182 -93 24 -247 33 -328 20z"/>
<path d="M5647 3610 c-85 -14 -215 -61 -304 -111 -63 -35 -111 -76 -248 -214
-229 -230 -355 -324 -570 -425 -396 -187 -832 -207 -1250 -60 -226 80 -424
207 -634 403 -154 146 -299 221 -483 253 -455 80 -904 -248 -1008 -734 -27
-129 -33 -228 -20 -338 28 -235 116 -428 269 -588 242 -253 585 -338 909 -227
149 52 226 107 421 301 203 202 307 281 496 375 247 123 466 176 735 177 169
1 265 -10 410 -48 283 -73 526 -211 776 -438 164 -149 291 -218 463 -250 286
-54 561 34 777 248 171 170 268 398 281 657 27 549 -354 1000 -862 1023 -55 3
-126 1 -158 -4z"/>
</g>
</svg>
